<svg xmlns="http://www.w3.org/2000/svg" width="64" height="15" viewBox="0 0 64 15">
    <g fill="#DB3727" fill-rule="nonzero">
        <path d="M0 7.5V15h64V0H0v7.5zm12.974-3.667c.55.194.738.314 1.617 1.034.94.773 1.255.906 2.523 1.073.57.073 1.127.16 1.24.2.35.107.732.44.94.807.188.346.194.373.194 1.32 0 .866-.013.993-.147 1.233-.315.58-.751.833-1.536.887-.537.033-.557.04-.638.22-.12.306-.577.726-.966.9-.885.406-1.878.1-2.448-.76l-.228-.347H9.526l-.127.253c-.155.287-.557.687-.846.834-.51.253-1.301.24-1.81-.034-.276-.146-.672-.553-.8-.82-.1-.213-.107-.213-.677-.246-.684-.047-1.16-.274-1.476-.714l-.2-.286V7.033l.22-.466c.182-.374.376-.62 1.074-1.32.94-.94 1.328-1.234 1.925-1.44.376-.127.557-.134 3.053-.134 2.636-.006 2.65 0 3.112.16zm25.533.5V5h.765c.423 0 .812.02.872.04.087.033.108.167.108.733v.694h-1.745V7.5c0 1.213.06 1.447.416 1.56.282.087.685 0 .9-.2.086-.08.174-.14.18-.12.014.013.088.28.168.593l.14.567-.147.153c-.308.334-.637.447-1.288.447-.523 0-.644-.02-.905-.167-.436-.246-.705-.633-.799-1.153-.04-.233-.073-.94-.073-1.567V6.467h-.873v-.24c0-.207.094-.367.651-1.054 1.154-1.44 1.214-1.506 1.436-1.506h.194v.666zm-11.867.7c.16.06.382.18.503.267l.221.167.02-.214.02-.22.504-.02c.275-.013.57 0 .65.02l.155.034V10.4H27.372v-.2c0-.213-.075-.253-.195-.107-.168.2-.712.387-1.221.42-1.282.094-2.483-.726-2.845-1.94-.134-.433-.127-1.253.007-1.713.194-.673.765-1.353 1.388-1.667.624-.32 1.49-.386 2.134-.16zm17.872-.093c.59.107 1.073.347 1.502.76.644.607.926 1.333.859 2.24-.168 2.42-3.2 3.473-4.944 1.713-1.315-1.326-.926-3.593.758-4.42.704-.346 1.154-.42 1.825-.293zm9.566.1c.315.16.329.213.228.853-.054.327-.107.607-.12.62-.014.014-.115-.02-.222-.08-.43-.22-1.107-.066-1.395.32-.135.18-.141.307-.175 1.9l-.033 1.714-.691.02-.685.02L51 7.72l.02-2.687h1.275l.02.247.02.247.208-.227c.349-.393 1.04-.513 1.536-.26zM31.53 6.7c.034 1.567.04 1.68.182 1.9.207.327.503.487.932.487.41 0 .792-.174.993-.447.134-.173.14-.3.174-1.893l.034-1.714.537-.02c.295-.013.603 0 .684.02l.154.034V10.4h-1.342v-.42l-.147.133c-.336.307-.597.38-1.261.387-.55 0-.691-.027-1.007-.173-.697-.327-1.08-.787-1.247-1.52-.101-.4-.135-3.674-.047-3.767.026-.027.335-.033.69-.027l.638.02.033 1.667zm25.09-.033c.034 1.753.054 1.846.423 2.186.416.387 1.221.314 1.657-.153l.168-.18.033-1.74.034-1.747h1.342l.02 2.68.013 2.687H58.97v-.42l-.148.133c-.342.307-.597.387-1.261.387-.55 0-.691-.027-1.013-.173-.738-.347-1.154-.94-1.268-1.814-.1-.753-.087-3.426.02-3.473.04-.013.356-.027.684-.02l.604.013.034 1.634zm-7.466 2.2c.59.353.55 1.266-.067 1.553a.948.948 0 0 1-1.255-.367c-.355-.586.094-1.32.805-1.32.181 0 .39.054.517.134z"/>
        <path d="M7.306 4.96c-.43.153-.685.347-1.45 1.12-.965.973-1.04 1.133-1.012 2.147l.02.74.503.02c.496.02.51.013.617-.174.497-.833 1.59-1.2 2.435-.826.37.166.792.54.946.826l.1.187H13.593l.214-.3c.57-.807 1.55-1.087 2.409-.687.308.147.865.66.925.86.04.107.115.127.544.127h.496v-.72c0-.633-.013-.74-.127-.84-.094-.087-.41-.153-1.154-.247-1.556-.2-2.013-.406-3.348-1.526-.275-.234-.67-.5-.872-.594L12.31 4.9 9.93 4.887c-1.832-.014-2.435 0-2.623.073zM7.292 9.267a.64.64 0 0 0-.18.74c.086.2.368.393.57.393.207 0 .482-.193.57-.393.241-.594-.457-1.134-.96-.74zM15.08 9.233c-.348.194-.375.7-.046.994.174.153.255.18.45.146.315-.046.482-.226.53-.56.033-.24.013-.3-.168-.48-.228-.22-.47-.253-.765-.1zM25.325 6.413c-.61.214-.94.734-.892 1.42.033.52.228.827.677 1.074.624.333 1.684.186 2.06-.294.114-.14.134-.266.134-.913v-.753l-.262-.234a1.597 1.597 0 0 0-.523-.306c-.315-.094-.926-.087-1.194.006zM43.371 6.46c-.953.427-1.114 1.747-.288 2.34.825.593 2.039.26 2.334-.64.12-.367.054-.907-.154-1.213-.356-.54-1.261-.774-1.892-.487z"/>
    </g>
</svg>
