
<svg width="124px" height="34px" viewBox="0 0 124 34" version="1.1" xmlns="http://www.w3.org/2000/svg" xmlns:xlink="http://www.w3.org/1999/xlink">
    <g id="WEB" stroke="none" stroke-width="1" fill="none" fill-rule="evenodd">
        <g id="Favorites-&gt;-1200px" transform="translate(-58.000000, -8.000000)">
            <g id="Header">
                <g id="logo" transform="translate(58.000000, 8.000000)">
                    <g id="logo-basket" opacity="0.551970109" fill="#95AE89" fill-rule="nonzero">
                        <g id="Group" transform="translate(12.538230, 16.770862) scale(-1, 1) rotate(-180.000000) translate(-12.538230, -16.770862) translate(0.038230, 0.270862)">
                            <path d="M10.1246018,32.2788367 C9.21345133,32.025719 8.2959292,31.3106614 7.84353982,30.4943568 C7.45486726,29.804611 7.35292035,29.2730638 7.35292035,27.9568517 L7.35292035,26.8304779 L5.26300885,26.8304779 C3.24955752,26.8304779 3.16672566,26.8241499 3.03292035,26.703919 C2.95646018,26.6343116 2.88,26.5077528 2.86088496,26.4318175 C2.81628319,26.2103395 0.0127433628,0.885912005 0.00637168142,0.563186917 C-0.00637168142,0.348036859 0.0254867257,0.227805944 0.114690265,0.132886801 L0.235752212,1.42108547e-14 L12.0042478,1.42108547e-14 L23.7727434,1.42108547e-14 L23.8938053,0.132886801 C23.9893805,0.234133887 24.0148673,0.348036859 24.0021239,0.626466346 C23.9893805,1.08840618 21.8230088,26.2483071 21.7847788,26.4318175 C21.7656637,26.5077528 21.6892035,26.6343116 21.6127434,26.703919 C21.4789381,26.8241499 21.3961062,26.8304779 19.2552212,26.8304779 L17.0378761,26.8304779 L17.0378761,27.9568517 C17.0378761,29.2730638 16.9359292,29.804611 16.5472566,30.4943568 C16.0821239,31.3296453 15.1263717,32.0636866 14.2024779,32.2914926 C13.6290265,32.4370353 10.659823,32.4243794 10.1246018,32.2788367 Z M10.2966372,31.1018393 C9.95893805,30.7221627 9.60849558,30.0450728 9.48743363,29.5451654 C9.42371681,29.2604079 9.39185841,28.7921402 9.39185841,27.9884914 L9.39185841,26.8304779 L8.84389381,26.8304779 L8.28955752,26.8304779 L8.32141593,27.9884914 C8.35327434,29.0452579 8.37238938,29.1781447 8.53168142,29.5957889 C8.71646018,30.0893684 9.25168142,30.7474745 9.68495575,31.0132481 C9.86336283,31.1208231 10.4240708,31.3676129 10.5260177,31.3865967 C10.5387611,31.3865967 10.4368142,31.2600379 10.2966372,31.1018393 Z M14.6548673,31.0385599 C15.1136283,30.7727863 15.6615929,30.1146802 15.859115,29.5957889 C16.0184071,29.1781447 16.0375221,29.0452579 16.0693805,27.9884914 L16.1012389,26.8304779 L15.5469027,26.8304779 L14.9989381,26.8304779 L14.9989381,27.9884914 C14.9989381,28.7921402 14.9670796,29.2604079 14.9033628,29.5451654 C14.7823009,30.0387449 14.4318584,30.7221627 14.0941593,31.1018393 L13.8456637,31.3865967 L14.119646,31.2853497 C14.2661947,31.2347261 14.5083186,31.1208231 14.6548673,31.0385599 Z M12.6159292,31.0385599 C13.2976991,30.6335715 13.8329204,29.8805463 13.979469,29.1148652 C14.0113274,28.9313549 14.0431858,28.3365283 14.0431858,27.8049811 L14.0431858,26.8304779 L12.1953982,26.8304779 L10.3476106,26.8304779 L10.3476106,27.8049811 C10.3476106,28.3365283 10.379469,28.9313549 10.4113274,29.1148652 C10.5578761,29.8805463 11.0930973,30.6335715 11.7748673,31.0385599 C11.9851327,31.1587908 12.1762832,31.2600379 12.1953982,31.2600379 C12.2145133,31.2600379 12.4056637,31.1587908 12.6159292,31.0385599 Z M7.35292035,24.9953744 C7.35292035,24.2550051 7.36566372,24.160086 7.48035398,24.046183 C7.67787611,23.8500168 8.0219469,23.8563447 8.20035398,24.0588389 C8.28955752,24.1664139 8.30867257,24.3182845 8.30867257,25.0017024 L8.30867257,25.818007 L11.1759292,25.818007 L14.0431858,25.818007 L14.0431858,24.9953744 C14.0431858,24.2550051 14.0559292,24.160086 14.1706195,24.046183 C14.3681416,23.8500168 14.7122124,23.8563447 14.8906195,24.0588389 C14.979823,24.1664139 14.9989381,24.3182845 14.9989381,25.0017024 L14.9989381,25.818007 L16.8467257,25.818007 L18.6945133,25.818007 L18.6945133,25.6724643 C18.6945133,25.590201 18.280354,20.0216113 17.7706195,13.2886801 C17.260885,6.56207678 16.8467257,1.03145469 16.8467257,0.999814977 C16.8467257,0.974503205 13.2913274,0.949191434 8.94584071,0.949191434 C1.61840708,0.949191434 1.04495575,0.955519376 1.04495575,1.05676646 C1.04495575,1.16434149 3.69557522,25.0966215 3.75292035,25.5522334 L3.79115044,25.818007 L5.57522124,25.818007 L7.35292035,25.818007 L7.35292035,24.9953744 Z M20.860885,25.7547276 C20.860885,25.6914481 22.880708,2.24641973 22.9189381,1.86041521 C22.9316814,1.67690487 22.8615929,1.72752841 21.7911504,2.68304779 C21.1667257,3.23990676 20.440354,3.88535693 20.1854867,4.11316288 L19.7139823,4.51815122 L19.7076106,4.87251603 C19.7076106,5.06235431 19.5738053,8.06812719 19.4081416,11.5484958 L19.1086726,17.8701107 L19.4081416,21.7997633 C19.5738053,23.9575918 19.7076106,25.7420717 19.7076106,25.7737114 C19.7139823,25.8433188 20.860885,25.8306629 20.860885,25.7547276 Z M18.6371681,6.89745775 L18.7518584,4.41690414 L18.3695575,3.68286276 L17.9872566,2.94249344 L18.019115,3.35380973 C18.2038938,5.97357809 18.4715044,9.41597902 18.4906195,9.39699519 C18.5033628,9.38433931 18.5670796,8.25796547 18.6371681,6.89745775 Z M20.720708,2.30337121 C21.4088496,1.68956075 22.0332743,1.13270178 22.1033628,1.06942235 C22.2244248,0.949191434 22.179823,0.949191434 20.1727434,0.949191434 L18.1210619,0.949191434 L18.739115,2.1831403 C19.0831858,2.86023019 19.3890265,3.41708916 19.4145133,3.41708916 C19.4463717,3.41708916 20.0325664,2.91718167 20.720708,2.30337121 Z" id="Shape"></path>
                        </g>
                    </g>
                    <path d="M36.6061233,18.0876068 C36.0856383,17.4634423 35.4317053,17.1513648 34.6443049,17.1513648 C34.4174268,17.1513648 34.1972249,17.1878845 33.9836925,17.260925 C33.7701602,17.3339655 33.5766495,17.4501646 33.4031544,17.6095258 C33.2296594,17.7688869 33.0928673,17.9747253 32.9927741,18.2270471 C32.8926808,18.479369 32.8426349,18.7781666 32.8426349,19.1234491 C32.8426349,19.7210534 33.0228001,20.1825299 33.3831359,20.5078922 C33.7434717,20.8332545 34.2172394,21.1420121 34.8044533,21.4341742 C35.1514434,21.6068155 35.505101,21.8060139 35.8654368,22.0317756 C36.2257726,22.2575372 36.552739,22.5297751 36.846346,22.8484974 C37.1399529,23.1672197 37.3801732,23.5456967 37.567014,23.9839399 C37.7538548,24.4221831 37.8472738,24.940099 37.8472738,25.5377033 C37.8472738,26.2282683 37.7371728,26.8391436 37.5169676,27.3703474 C37.2967624,27.9015512 37.0031598,28.3497477 36.6361512,28.7149504 C36.2691425,29.080153 35.8387478,29.3557109 35.3449543,29.5416322 C34.8511608,29.7275535 34.3306836,29.8205128 33.783507,29.8205128 C32.9961065,29.8205128 32.268773,29.667794 31.6014844,29.3623518 C30.9341959,29.0569096 30.4003731,28.6717926 30,28.2069892 L31.3012061,26.4540254 C31.6081588,26.825868 31.9784984,27.1180258 32.4122359,27.3305073 C32.8459735,27.5429888 33.2897137,27.649228 33.7434699,27.649228 C34.2506092,27.649228 34.6709946,27.4765894 35.0046389,27.1313069 C35.3382831,26.7860244 35.5051028,26.3013081 35.5051028,25.6771436 C35.5051028,25.0662592 35.3049192,24.581543 34.9045461,24.2229804 C34.504173,23.8644178 33.9970413,23.5324204 33.3831359,23.2269782 C32.9961085,23.0410569 32.6324418,22.8352185 32.2921246,22.6094569 C31.9518075,22.3836952 31.6515321,22.1147773 31.3912896,21.8026951 C31.1310471,21.4906128 30.9241907,21.1254157 30.7707144,20.7070926 C30.617238,20.2887696 30.540501,19.7874535 30.540501,19.2031293 C30.540501,18.472724 30.6572747,17.8452489 30.8908257,17.3206851 C31.1243767,16.7961214 31.4313248,16.3612047 31.8116793,16.0159222 C32.1920337,15.6706398 32.6224284,15.4150017 33.1028761,15.2490006 C33.5833238,15.0829994 34.0704372,15 34.5642307,15 C35.2849023,15 35.928826,15.1161991 36.4960213,15.3486008 C37.0632165,15.5810024 37.5403206,15.9229598 37.927348,16.374483 L36.6061233,18.0876068 Z M46.6299293,29.461952 L46.6299293,23.2070582 L42.3859955,23.2070582 L42.3859955,29.461952 L40.0037874,29.461952 L40.0037874,15.3585608 L42.3859955,15.3585608 L42.3859955,21.0756135 L46.6299293,21.0756135 L46.6299293,15.3585608 L49.0121374,15.3585608 L49.0121374,29.461952 L46.6299293,29.461952 Z M61.4581885,22.3903364 C61.4581885,23.5058644 61.3414148,24.5184565 61.1078638,25.4281431 C60.8743128,26.3378297 60.5373372,27.1180236 60.0969268,27.7687483 C59.6565163,28.419473 59.1193571,28.924109 58.485433,29.2826716 C57.8515089,29.6412342 57.1408573,29.8205128 56.3534569,29.8205128 C55.5527106,29.8205128 54.8387226,29.6412342 54.2114714,29.2826716 C53.5842202,28.924109 53.0503974,28.419473 52.609987,27.7687483 C52.1695766,27.1180236 51.8326009,26.3378297 51.5990499,25.4281431 C51.3654989,24.5184565 51.2487252,23.5058644 51.2487252,22.3903364 C51.2487252,21.2748083 51.3621626,20.2655362 51.5890407,19.3624897 C51.8159188,18.4594431 52.149558,17.6825692 52.5899684,17.0318445 C53.0303789,16.3811198 53.5675381,15.8798037 54.2014621,15.5278812 C54.8353862,15.1759586 55.5527106,15 56.3534569,15 C57.1408573,15 57.8515089,15.1759586 58.485433,15.5278812 C59.1193571,15.8798037 59.6565163,16.3811198 60.0969268,17.0318445 C60.5373372,17.6825692 60.8743128,18.4594431 61.1078638,19.3624897 C61.3414148,20.2655362 61.4581885,21.2748083 61.4581885,22.3903364 Z M58.9758876,22.3903364 C58.9758876,21.6732112 58.919169,20.9992564 58.8057299,20.3684519 C58.6922909,19.7376473 58.5254712,19.1931716 58.305266,18.7350083 C58.0850608,18.276845 57.8114766,17.9149678 57.4845053,17.6493659 C57.1575339,17.383764 56.7805215,17.250965 56.3534569,17.250965 C55.9130464,17.250965 55.5293613,17.383764 55.2023899,17.6493659 C54.8754186,17.9149678 54.6018344,18.276845 54.3816291,18.7350083 C54.1614239,19.1931716 53.9979407,19.7376473 53.8911745,20.3684519 C53.7844084,20.9992564 53.7310261,21.6732112 53.7310261,22.3903364 C53.7310261,23.1074615 53.7844084,23.7814163 53.8911745,24.4122208 C53.9979407,25.0430254 54.1614239,25.5908211 54.3816291,26.0556245 C54.6018344,26.5204278 54.8754186,26.885625 55.2023899,27.1512269 C55.5293613,27.4168288 55.9130464,27.5496278 56.3534569,27.5496278 C56.7938673,27.5496278 57.1775524,27.4168288 57.5045238,27.1512269 C57.8314952,26.885625 58.1050794,26.5204278 58.3252846,26.0556245 C58.5454898,25.5908211 58.708973,25.0430254 58.8157392,24.4122208 C58.9225054,23.7814163 58.9758876,23.1074615 58.9758876,22.3903364 Z M71.6021058,19.52185 C71.6021058,20.2389752 71.4920048,20.8664503 71.2717996,21.4042942 C71.0515944,21.9421381 70.7613283,22.3903346 70.4009925,22.7488972 C70.0406567,23.1074597 69.626944,23.3730577 69.159842,23.5456989 C68.6927401,23.7183402 68.2122995,23.8046595 67.718506,23.8046595 L66.0369474,23.8046595 L66.0369474,29.461952 L63.6747578,29.461952 L63.6747578,15.3585608 L67.5983947,15.3585608 C68.0521509,15.3585608 68.5192458,15.4249603 68.9996936,15.5577612 C69.4801413,15.6905622 69.910536,15.9196404 70.2908904,16.2450028 C70.6712449,16.5703651 70.9848658,16.9986418 71.2317625,17.5298456 C71.4786593,18.0610494 71.6021058,18.7250443 71.6021058,19.52185 Z M69.3199905,19.5417701 C69.3199905,18.7848046 69.1398253,18.2336889 68.7794895,17.8884064 C68.4191537,17.5431239 67.9587315,17.3704852 67.3982091,17.3704852 L66.0369474,17.3704852 L66.0369474,21.8524952 L67.3982091,21.8524952 C67.9587315,21.8524952 68.4191537,21.6566167 68.7794895,21.2648539 C69.1398253,20.873091 69.3199905,20.2987355 69.3199905,19.5417701 Z M77.4365433,29.461952 L77.4365433,15.3585608 L79.8387699,15.3585608 L79.8387699,29.461952 L77.4365433,29.461952 Z M88.9016852,29.461952 L84.8779555,19.50193 L84.8178999,19.50193 L84.857937,29.461952 L82.695933,29.461952 L82.695933,15.3585608 L85.4384751,15.3585608 L89.4221676,25.378343 L89.4822233,25.378343 L89.4622047,15.3585608 L91.5441345,15.3585608 L91.5441345,29.461952 L88.9016852,29.461952 Z M101.342246,17.3904053 L101.342246,29.461952 L98.9800564,29.461952 L98.9800564,17.3904053 L96.3175885,17.3904053 L96.3175885,15.3585608 L104.004714,15.3585608 L104.004714,17.3904053 L101.342246,17.3904053 Z M111.165866,29.461952 L110.465217,26.4739454 L106.741766,26.4739454 L106.021098,29.461952 L103.618871,29.461952 L107.142137,15.3585608 L110.204976,15.3585608 L113.668186,29.461952 L111.165866,29.461952 Z M108.663547,17.6095258 L108.583473,17.6095258 L107.042044,24.6014613 L110.164939,24.6014613 L108.663547,17.6095258 Z M123.311639,25.5177833 C123.311639,26.2614687 123.188193,26.8823038 122.941296,27.3803074 C122.694399,27.878311 122.380778,28.2833479 122.000424,28.5954301 C121.620069,28.9075124 121.193011,29.1299506 120.719236,29.2627516 C120.245461,29.3955525 119.781703,29.461952 119.327947,29.461952 L115.12405,29.461952 L115.12405,15.3585608 L118.887538,15.3585608 C119.301257,15.3585608 119.741661,15.4083604 120.208763,15.5079611 C120.675865,15.6075618 121.102923,15.7868404 121.489951,16.0458023 C121.876978,16.3047642 122.197272,16.6633214 122.450841,17.1214847 C122.704411,17.579648 122.831194,18.1739234 122.831194,18.9043286 C122.831194,19.780815 122.644356,20.4713696 122.270674,20.9760132 C121.896993,21.4806569 121.463262,21.8325741 120.969468,22.0317756 L120.969468,22.0716157 C121.236384,22.1380161 121.506631,22.2508953 121.78022,22.4102564 C122.053808,22.5696176 122.304037,22.7920558 122.530916,23.0775779 C122.757794,23.3630999 122.944632,23.7083773 123.091435,24.1134202 C123.238239,24.5184631 123.311639,24.9865795 123.311639,25.5177833 Z M120.66919,19.2828095 C120.66919,18.9242469 120.612471,18.6221292 120.499032,18.3764475 C120.385593,18.1307657 120.238792,17.9315673 120.058624,17.7788462 C119.878456,17.6261251 119.668263,17.5165659 119.428039,17.4501654 C119.187816,17.3837649 118.940922,17.3505652 118.687353,17.3505652 L117.366128,17.3505652 L117.366128,21.2748139 L118.72739,21.2748139 C118.967614,21.2748139 119.204498,21.2382942 119.438049,21.1652537 C119.6716,21.0922131 119.878456,20.976014 120.058624,20.8166529 C120.238792,20.6572917 120.385593,20.4514533 120.499032,20.1991315 C120.612471,19.9468097 120.66919,19.6413721 120.66919,19.2828095 Z M121.009505,25.3185829 C121.009505,24.9068999 120.942777,24.5583026 120.80932,24.2727805 C120.675862,23.9872585 120.50237,23.7548603 120.288837,23.575579 C120.075305,23.3962977 119.841757,23.2668187 119.588188,23.1871381 C119.334618,23.1074576 119.081052,23.0676179 118.827483,23.0676179 L117.366128,23.0676179 L117.366128,27.4699476 L118.887538,27.4699476 C119.181145,27.4699476 119.45473,27.426788 119.708299,27.3404673 C119.961869,27.2541467 120.185407,27.1213477 120.378921,26.9420664 C120.572434,26.7627852 120.725909,26.5403469 120.839348,26.274745 C120.952787,26.0091431 121.009505,25.6904255 121.009505,25.3185829 Z" id="LOGO" fill="#4AB9EC"></path>
                </g>
            </g>
        </g>
    </g>
</svg>