<svg xmlns="http://www.w3.org/2000/svg" width="30" height="30" viewBox="0 0 30 30">
    <path fill="#4D8D51" fill-rule="evenodd" d="M15 0C6.716 0 0 6.716 0 15c0 8.284 6.716 15 15 15 8.284 0 15-6.716 15-15 0-8.284-6.716-15-15-15zm0 27.273C8.222 27.273 2.727 21.778 2.727 15A12.19 12.19 0 0 1 3.92 9.751l4.64 4.642-.009.011 1.591 1.591 3.438-3.436 5.34 5.34-2.555 2.556h6.818v-6.819l-2.556 2.556-6.962-6.962-1.706 1.706.028.03-1.684 1.684-5.066-5.064C7.478 4.639 11.011 2.727 15 2.727A12.273 12.273 0 0 1 27.273 15c0 6.778-5.495 12.273-12.273 12.273z"/>
</svg>
