<svg xmlns="http://www.w3.org/2000/svg" width="25" height="25" viewBox="0 0 25 25">
    <g fill="#CCC" fill-rule="nonzero">
        <path d="M20.762 21.7c0 1.082-.87 1.994-1.943 1.994H3.272c-1.072 0-1.943-.912-1.943-1.994V6.013c0-1.082.87-1.929 1.943-1.929h9.069V2.778H3.27A3.23 3.23 0 0 0 .034 6.014V21.7c0 1.802 1.453 3.3 3.239 3.3h15.546c1.786 0 3.239-1.499 3.239-3.3v-9.119H20.76v9.12h.001z"/>
        <path d="M23.643.747c-1.023-.996-2.81-.996-3.835 0l-9.095 8.844a.654.654 0 0 0-.179.306l-.957 3.728a.65.65 0 0 0 .178.626.688.688 0 0 0 .643.174l3.835-.933a.676.676 0 0 0 .315-.173l9.095-8.844a2.584 2.584 0 0 0 0-3.728zm-9.92 11.511l-2.557.622.64-2.487 7.523-7.315 1.918 1.864-7.524 7.316zm8.961-8.715l-.478.466-1.918-1.865.479-.465c.512-.498 1.406-.498 1.917 0a1.291 1.291 0 0 1 0 1.864z"/>
    </g>
</svg>
